<?xml version="1.0" encoding="iso-8859-1"?>
<!-- Generator: Adobe Illustrator 17.1.0, SVG Export Plug-In . SVG Version: 6.00 Build 0)  -->
<!DOCTYPE svg PUBLIC "-//W3C//DTD SVG 1.1//EN" "http://www.w3.org/Graphics/SVG/1.1/DTD/svg11.dtd">
<svg version="1.1" id="Capa_1" xmlns="http://www.w3.org/2000/svg" xmlns:xlink="http://www.w3.org/1999/xlink" x="0px" y="0px"
	 viewBox="0 0 465 465" style="enable-background:new 0 0 465 465;" xml:space="preserve">
<g>
	<path d="M447.5,75h-430C7.851,75,0,82.85,0,92.5v280c0,9.649,7.851,17.5,17.5,17.5h354.969c0.007,0,0.014,0.001,0.021,0.001   c0.005,0,0.01-0.001,0.016-0.001H447.5c9.649,0,17.5-7.851,17.5-17.5v-280C465,82.85,457.149,75,447.5,75z M100.996,375l8.125-65   h246.758l8.125,65H100.996z M450,372.5c0,1.355-1.145,2.5-2.5,2.5h-68.379l-9.179-73.431c-0.47-3.753-3.66-6.569-7.442-6.569h-260   c-3.782,0-6.973,2.816-7.442,6.569L85.879,375H17.5c-1.355,0-2.5-1.145-2.5-2.5v-280c0-1.355,1.145-2.5,2.5-2.5h430   c1.355,0,2.5,1.145,2.5,2.5V372.5z" fill="#FFFFFF"/>
	<path d="M427.5,105h-390c-4.143,0-7.5,3.357-7.5,7.5v160c0,4.143,3.357,7.5,7.5,7.5h65c4.143,0,7.5-3.357,7.5-7.5   s-3.357-7.5-7.5-7.5H45V120h375v145H132.5c-4.143,0-7.5,3.357-7.5,7.5s3.357,7.5,7.5,7.5h295c4.143,0,7.5-3.357,7.5-7.5v-160   C435,108.357,431.643,105,427.5,105z" fill="#FFFFFF"/>
	<path d="M129.063,340c-5.514,0-10,4.486-10,10s4.486,10,10,10s10-4.486,10-10S134.577,340,129.063,340z" fill="#FFFFFF"/>
	<path d="M335.938,340c-5.514,0-10,4.486-10,10s4.486,10,10,10s10-4.486,10-10S341.451,340,335.938,340z" fill="#FFFFFF"/>
	<path d="M327.5,235c23.435,0,42.5-19.065,42.5-42.5S350.935,150,327.5,150h-190c-23.435,0-42.5,19.065-42.5,42.5   s19.065,42.5,42.5,42.5H327.5z M327.5,165c15.163,0,27.5,12.337,27.5,27.5S342.663,220,327.5,220S300,207.663,300,192.5   S312.337,165,327.5,165z M169.866,165h125.269C288.822,172.418,285,182.018,285,192.5s3.822,20.082,10.134,27.5H169.866   c6.313-7.418,10.134-17.019,10.134-27.5S176.178,172.418,169.866,165z M110,192.5c0-15.163,12.337-27.5,27.5-27.5   s27.5,12.337,27.5,27.5S152.663,220,137.5,220S110,207.663,110,192.5z" fill="#FFFFFF"/>
</g>
<g>
</g>
<g>
</g>
<g>
</g>
<g>
</g>
<g>
</g>
<g>
</g>
<g>
</g>
<g>
</g>
<g>
</g>
<g>
</g>
<g>
</g>
<g>
</g>
<g>
</g>
<g>
</g>
<g>
</g>
</svg>
